<svg id="Layer_1" data-name="Layer 1" xmlns="http://www.w3.org/2000/svg" viewBox="0 0 249.5 249.5"><defs><style>.cls-1,.cls-2{fill:#f1f2f2;}.cls-2{opacity:0.45;}</style></defs><path class="cls-1" d="M155.37,89.81,130.15,66.19,150.38,5.12a135.46,135.46,0,0,0-22.62-1.89q-27.47,0-50.42,10.15A122.08,122.08,0,0,0,38,40.59,126.39,126.39,0,0,0,3.25,128.23a127.19,127.19,0,0,0,9,47.51,122.39,122.39,0,0,0,21.53,35.5L149.61,107.47Z" transform="translate(-3.25 -3.23)"/><path class="cls-1" d="M218,40.59a121.52,121.52,0,0,0-39.54-27.21C175.26,12,172,10.8,168.75,9.7L143.11,60.43,166.6,86.51l-4,9.31L220.79,43.7C219.86,42.66,218.93,41.61,218,40.59Z" transform="translate(-3.25 -3.23)"/><path class="cls-2" d="M173.65,244.43a125.4,125.4,0,0,0,40.74-25.78,121.24,121.24,0,0,0,27.26-38.83,128.52,128.52,0,0,0,11-47.36c.07-1.72.1-3.42.1-5.11a126.13,126.13,0,0,0-32-83.65L162.61,95.82l-12.13,28.23,4.89,27.77-12.61-23.4,6.85-20.95L33.77,211.24c1.23,1.41,2.5,2.81,3.8,4.17a121.66,121.66,0,0,0,39.3,27.21,115,115,0,0,0,20,6.69,137.19,137.19,0,0,0,25.36,3.31Q150.21,253.71,173.65,244.43Z" transform="translate(-3.25 -3.23)"/></svg>