<svg id="Layer_1" data-name="Layer 1" xmlns="http://www.w3.org/2000/svg" viewBox="0 0 242.49 242.49"><defs><style>.cls-1{fill:#fff;}</style></defs><path class="cls-1" d="M240.27,81.61a121.83,121.83,0,0,0-24.84-38.55A118,118,0,0,0,177,16.62c-3.07-1.35-6.21-2.52-9.39-3.58l-24.93,49.3,22.84,25.35-15.67,36.47,4.75,27-12.25-22.74L154.6,90.89l-24.51-23L149.75,8.58a132.32,132.32,0,0,0-22-1.83q-26.68,0-49,9.87a118.47,118.47,0,0,0-38.2,26.44A122.88,122.88,0,0,0,6.75,128.22a123.65,123.65,0,0,0,8.75,46.17,116.82,116.82,0,0,0,62.81,65q22.31,9.85,49.46,9.87t49.46-9.87a121.19,121.19,0,0,0,38.43-26.44,116.65,116.65,0,0,0,24.84-38.55,123.65,123.65,0,0,0,8.75-46.17A122.08,122.08,0,0,0,240.27,81.61Z" transform="translate(-6.75 -6.75)"/></svg>