<svg id="Layer_1" data-name="Layer 1" xmlns="http://www.w3.org/2000/svg" viewBox="0 0 600.71 202.4"><defs><style>.cls-1{fill:#e54c4c;}.cls-2{fill:#f28177;}.cls-3{fill:#fff;}.cls-4{font-size:30px;fill:#202124;font-family:Lato-Regular, Lato;}.cls-5{letter-spacing:-0.02em;}</style></defs><path class="cls-1" d="M318.1,413a69.88,69.88,0,0,1-21.33-3.35A52.77,52.77,0,0,1,278.71,400l6.54-10.15a63.27,63.27,0,0,0,15.82,9,46.5,46.5,0,0,0,16.69,3q9.8,0,15.56-3.87a12.42,12.42,0,0,0,5.77-10.92,9.86,9.86,0,0,0-1.55-5.59,12.89,12.89,0,0,0-4.65-4,37.8,37.8,0,0,0-7.91-3.1q-4.82-1.38-11.18-2.92-8.08-2.07-13.93-4a37.62,37.62,0,0,1-9.63-4.47,15.69,15.69,0,0,1-5.51-6.19,20.85,20.85,0,0,1-1.72-8.95,26,26,0,0,1,2.67-11.95,25.15,25.15,0,0,1,7.31-8.77,33,33,0,0,1,10.92-5.34,48.84,48.84,0,0,1,13.5-1.8,53.69,53.69,0,0,1,18.92,3.27,46.56,46.56,0,0,1,14.8,8.6L344.25,341a38.76,38.76,0,0,0-12.73-7.48A43.14,43.14,0,0,0,317.07,331a26.39,26.39,0,0,0-14,3.52q-5.76,3.53-5.76,11.27a10.71,10.71,0,0,0,1.12,5.16,9.73,9.73,0,0,0,3.7,3.61,29,29,0,0,0,6.62,2.75q4,1.21,9.72,2.58,8.94,2.07,15.56,4.22a44.69,44.69,0,0,1,11,5.07,19.66,19.66,0,0,1,6.54,6.88,20,20,0,0,1,2.15,9.63q0,12.56-9.64,19.95T318.1,413Z" transform="translate(-278.71 -268.33)"/><path class="cls-1" d="M447.22,376.22V365.38s3.63-5,16.17-5,16.18,5,16.18,5v10.84s-3.61-5-16.18-5S447.22,376.22,447.22,376.22Z" transform="translate(-278.71 -268.33)"/><path class="cls-1" d="M452.86,348.69a46.76,46.76,0,0,0-9.29-14.79,44.95,44.95,0,0,0-65.36,0,46.91,46.91,0,0,0-9.28,14.79,47.89,47.89,0,0,0-3.36,17.89,48.58,48.58,0,0,0,3.27,17.72,45.73,45.73,0,0,0,9.2,14.79,46,46,0,0,0,51.26,10.15A44.7,44.7,0,0,0,453,384.3a48.79,48.79,0,0,0,3.27-17.72A47.89,47.89,0,0,0,452.86,348.69Z" transform="translate(-278.71 -268.33)"/><rect class="cls-1" x="86.88" y="97.81" width="11.32" height="99.11"/><path class="cls-2" d="M376.76,397.65a46,46,0,0,0,50.93,12.26,44.87,44.87,0,0,0,24.71-24.09,48.93,48.93,0,0,0,4-17.66,48.21,48.21,0,0,0-2.64-18.1,47.16,47.16,0,0,0-8.7-15.24" transform="translate(-278.71 -268.33)"/><path class="cls-1" d="M555.89,348.69a46.94,46.94,0,0,0-9.29-14.79,44.95,44.95,0,0,0-65.36,0A47.12,47.12,0,0,0,472,348.69a48.09,48.09,0,0,0-3.35,17.89,48.58,48.58,0,0,0,3.27,17.72,45.39,45.39,0,0,0,9.2,14.79,46,46,0,0,0,51.26,10.15A44.7,44.7,0,0,0,556,384.3a48.78,48.78,0,0,0,3.26-17.72A48.09,48.09,0,0,0,555.89,348.69Z" transform="translate(-278.71 -268.33)"/><path class="cls-2" d="M479.57,397.65a46.06,46.06,0,0,0,50.94,12.26,44.89,44.89,0,0,0,24.7-24.09,48.93,48.93,0,0,0,4-17.66,48,48,0,0,0-2.64-18.1,47.16,47.16,0,0,0-8.7-15.24" transform="translate(-278.71 -268.33)"/><path class="cls-1" d="M620.71,406.83c-.92.46-2.12,1-3.61,1.63s-3.18,1.27-5.07,1.89a43.19,43.19,0,0,1-6.2,1.55,39.36,39.36,0,0,1-7,.6A23,23,0,0,1,584.59,408q-6-4.56-6-14.19V333.38H566.36V321.52h12.21V291.59h15.14v29.93h20.12v11.86H593.71v55.73c.23,3.33,1.31,5.74,3.27,7.23a11,11,0,0,0,6.88,2.23,22,22,0,0,0,8.17-1.46,35.8,35.8,0,0,0,5.07-2.32Z" transform="translate(-278.71 -268.33)"/><path class="cls-1" d="M681.25,406.83c-.92.46-2.12,1-3.61,1.63s-3.18,1.27-5.07,1.89a43,43,0,0,1-6.19,1.55,39.56,39.56,0,0,1-7,.6A23,23,0,0,1,645.13,408q-6-4.56-6-14.19V333.38H626.9V321.52h12.21V291.59h15.14v29.93h20.12v11.86H654.25v55.73q.35,5,3.27,7.23a11,11,0,0,0,6.88,2.23,22,22,0,0,0,8.17-1.46,35.8,35.8,0,0,0,5.07-2.32Z" transform="translate(-278.71 -268.33)"/><path class="cls-1" d="M731.89,413a45.66,45.66,0,0,1-18.58-3.7,44,44,0,0,1-14.45-10.06,45.75,45.75,0,0,1-9.37-14.88,48.46,48.46,0,0,1-3.36-18,47.86,47.86,0,0,1,3.36-17.89A45,45,0,0,1,732.06,320a43.64,43.64,0,0,1,41.71,28.46A48.2,48.2,0,0,1,777,365.72c0,1.26,0,2.41-.09,3.44a17.93,17.93,0,0,1-.25,2.41H702.13a34.74,34.74,0,0,0,3.1,12.21,31.46,31.46,0,0,0,6.7,9.46,31,31,0,0,0,9.38,6.19,28,28,0,0,0,11.09,2.24,29.47,29.47,0,0,0,8.09-1.12,34.91,34.91,0,0,0,7.39-3A25.88,25.88,0,0,0,754,392.9a19.13,19.13,0,0,0,4-6.2l13.07,3.62a33,33,0,0,1-6.1,9.11,40.46,40.46,0,0,1-9,7.14,45.85,45.85,0,0,1-11.26,4.73A47.87,47.87,0,0,1,731.89,413Zm30.78-52.63a32.21,32.21,0,0,0-3.18-11.78,31.49,31.49,0,0,0-6.71-9.21,30.75,30.75,0,0,0-32.07-5.93,29.35,29.35,0,0,0-9.38,6,30.53,30.53,0,0,0-6.53,9.2,33.64,33.64,0,0,0-3,11.7Z" transform="translate(-278.71 -268.33)"/><path class="cls-1" d="M834,413a44,44,0,0,1-32.77-13.93,45.73,45.73,0,0,1-9.2-14.79,48.58,48.58,0,0,1-3.27-17.72,47.89,47.89,0,0,1,3.36-17.89,46.76,46.76,0,0,1,9.29-14.79,44.36,44.36,0,0,1,14.27-10.15A43.87,43.87,0,0,1,834,320a44.43,44.43,0,0,1,32.77,13.93,46.91,46.91,0,0,1,9.28,14.79,47.89,47.89,0,0,1,3.36,17.89,48.58,48.58,0,0,1-3.27,17.72,44.7,44.7,0,0,1-23.65,24.94A44.3,44.3,0,0,1,834,413Zm-29.76-46.27a35.92,35.92,0,0,0,2.33,13.07,33.09,33.09,0,0,0,6.36,10.5,30,30,0,0,0,9.46,7.05,27.41,27.41,0,0,0,23.22,0,30.55,30.55,0,0,0,9.55-7.14,33.46,33.46,0,0,0,6.45-10.66A36.9,36.9,0,0,0,864,366.41a36.4,36.4,0,0,0-2.32-13,33.46,33.46,0,0,0-6.45-10.66,30.55,30.55,0,0,0-9.55-7.14A26.65,26.65,0,0,0,834,333a25.9,25.9,0,0,0-11.61,2.67,30.56,30.56,0,0,0-9.46,7.22,34.09,34.09,0,0,0-6.36,10.66A36.72,36.72,0,0,0,804.26,366.75Z" transform="translate(-278.71 -268.33)"/><rect class="cls-1" x="589.39" width="11.32" height="99.19"/><polygon class="cls-3" points="243.71 51.21 235.99 75.12 245.15 83.93 240.57 98.33 245.15 107.05 243.38 96.69 249.23 82.7 240.7 72.97 250.42 53.22 243.71 51.21"/><text class="cls-4" transform="translate(260.74 196.92) scale(0.94 1)">THE BAD HABIT TR<tspan class="cls-5" x="264" y="0">A</tspan><tspan x="283.77" y="0">CKER</tspan></text></svg>