<svg id="Layer_1" data-name="Layer 1" xmlns="http://www.w3.org/2000/svg" viewBox="0 0 600.71 197.17"><defs><style>.cls-1{fill:#e54c4c;}.cls-2{fill:#f28177;}.cls-3{fill:#fff;}.cls-4{fill:#202124;}</style></defs><path class="cls-1" d="M318.1,413a69.88,69.88,0,0,1-21.33-3.35A52.77,52.77,0,0,1,278.71,400l6.54-10.15a63.27,63.27,0,0,0,15.82,9,46.5,46.5,0,0,0,16.69,3q9.8,0,15.56-3.87a12.42,12.42,0,0,0,5.77-10.92,9.86,9.86,0,0,0-1.55-5.59,12.89,12.89,0,0,0-4.65-4,37.8,37.8,0,0,0-7.91-3.1q-4.82-1.38-11.18-2.92-8.08-2.07-13.93-4a37.62,37.62,0,0,1-9.63-4.47,15.69,15.69,0,0,1-5.51-6.19,20.85,20.85,0,0,1-1.72-8.95,26,26,0,0,1,2.67-11.95,25.15,25.15,0,0,1,7.31-8.77,33,33,0,0,1,10.92-5.34,48.84,48.84,0,0,1,13.5-1.8,53.69,53.69,0,0,1,18.92,3.27,46.56,46.56,0,0,1,14.8,8.6L344.25,341a38.76,38.76,0,0,0-12.73-7.48A43.14,43.14,0,0,0,317.07,331a26.39,26.39,0,0,0-14,3.52q-5.76,3.53-5.76,11.27a10.71,10.71,0,0,0,1.12,5.16,9.73,9.73,0,0,0,3.7,3.61,29,29,0,0,0,6.62,2.75q4,1.21,9.72,2.58,8.94,2.07,15.56,4.22a44.69,44.69,0,0,1,11,5.07,19.66,19.66,0,0,1,6.54,6.88,20,20,0,0,1,2.15,9.63q0,12.56-9.64,19.95T318.1,413Z" transform="translate(-278.71 -268.33)"/><path class="cls-1" d="M447.22,376.22V365.38s3.63-5,16.17-5,16.18,5,16.18,5v10.84s-3.61-5-16.18-5S447.22,376.22,447.22,376.22Z" transform="translate(-278.71 -268.33)"/><path class="cls-1" d="M452.86,348.69a46.76,46.76,0,0,0-9.29-14.79,44.95,44.95,0,0,0-65.36,0,46.91,46.91,0,0,0-9.28,14.79,47.89,47.89,0,0,0-3.36,17.89,48.58,48.58,0,0,0,3.27,17.72,45.73,45.73,0,0,0,9.2,14.79,46,46,0,0,0,51.26,10.15A44.7,44.7,0,0,0,453,384.3a48.79,48.79,0,0,0,3.27-17.72A47.89,47.89,0,0,0,452.86,348.69Z" transform="translate(-278.71 -268.33)"/><rect class="cls-1" x="86.88" y="97.81" width="11.32" height="99.11"/><path class="cls-2" d="M376.76,397.65a46,46,0,0,0,50.93,12.26,44.87,44.87,0,0,0,24.71-24.09,48.93,48.93,0,0,0,4-17.66,48.21,48.21,0,0,0-2.64-18.1,47.16,47.16,0,0,0-8.7-15.24" transform="translate(-278.71 -268.33)"/><path class="cls-1" d="M555.89,348.69a46.94,46.94,0,0,0-9.29-14.79,44.95,44.95,0,0,0-65.36,0A47.12,47.12,0,0,0,472,348.69a48.09,48.09,0,0,0-3.35,17.89,48.58,48.58,0,0,0,3.27,17.72,45.39,45.39,0,0,0,9.2,14.79,46,46,0,0,0,51.26,10.15A44.7,44.7,0,0,0,556,384.3a48.78,48.78,0,0,0,3.26-17.72A48.09,48.09,0,0,0,555.89,348.69Z" transform="translate(-278.71 -268.33)"/><path class="cls-2" d="M479.57,397.65a46.06,46.06,0,0,0,50.94,12.26,44.89,44.89,0,0,0,24.7-24.09,48.93,48.93,0,0,0,4-17.66,48,48,0,0,0-2.64-18.1,47.16,47.16,0,0,0-8.7-15.24" transform="translate(-278.71 -268.33)"/><path class="cls-1" d="M620.71,406.83c-.92.46-2.12,1-3.61,1.63s-3.18,1.27-5.07,1.89a43.19,43.19,0,0,1-6.2,1.55,39.36,39.36,0,0,1-7,.6A23,23,0,0,1,584.59,408q-6-4.56-6-14.19V333.38H566.36V321.52h12.21V291.59h15.14v29.93h20.12v11.86H593.71v55.73c.23,3.33,1.31,5.74,3.27,7.23a11,11,0,0,0,6.88,2.23,22,22,0,0,0,8.17-1.46,35.8,35.8,0,0,0,5.07-2.32Z" transform="translate(-278.71 -268.33)"/><path class="cls-1" d="M681.25,406.83c-.92.46-2.12,1-3.61,1.63s-3.18,1.27-5.07,1.89a43,43,0,0,1-6.19,1.55,39.56,39.56,0,0,1-7,.6A23,23,0,0,1,645.13,408q-6-4.56-6-14.19V333.38H626.9V321.52h12.21V291.59h15.14v29.93h20.12v11.86H654.25v55.73q.35,5,3.27,7.23a11,11,0,0,0,6.88,2.23,22,22,0,0,0,8.17-1.46,35.8,35.8,0,0,0,5.07-2.32Z" transform="translate(-278.71 -268.33)"/><path class="cls-1" d="M731.89,413a45.66,45.66,0,0,1-18.58-3.7,44,44,0,0,1-14.45-10.06,45.75,45.75,0,0,1-9.37-14.88,48.46,48.46,0,0,1-3.36-18,47.86,47.86,0,0,1,3.36-17.89A45,45,0,0,1,732.06,320a43.64,43.64,0,0,1,41.71,28.46A48.2,48.2,0,0,1,777,365.72c0,1.26,0,2.41-.09,3.44a17.93,17.93,0,0,1-.25,2.41H702.13a34.74,34.74,0,0,0,3.1,12.21,31.46,31.46,0,0,0,6.7,9.46,31,31,0,0,0,9.38,6.19,28,28,0,0,0,11.09,2.24,29.47,29.47,0,0,0,8.09-1.12,34.91,34.91,0,0,0,7.39-3A25.88,25.88,0,0,0,754,392.9a19.13,19.13,0,0,0,4-6.2l13.07,3.62a33,33,0,0,1-6.1,9.11,40.46,40.46,0,0,1-9,7.14,45.85,45.85,0,0,1-11.26,4.73A47.87,47.87,0,0,1,731.89,413Zm30.78-52.63a32.21,32.21,0,0,0-3.18-11.78,31.49,31.49,0,0,0-6.71-9.21,30.75,30.75,0,0,0-32.07-5.93,29.35,29.35,0,0,0-9.38,6,30.53,30.53,0,0,0-6.53,9.2,33.64,33.64,0,0,0-3,11.7Z" transform="translate(-278.71 -268.33)"/><path class="cls-1" d="M834,413a44,44,0,0,1-32.77-13.93,45.73,45.73,0,0,1-9.2-14.79,48.58,48.58,0,0,1-3.27-17.72,47.89,47.89,0,0,1,3.36-17.89,46.76,46.76,0,0,1,9.29-14.79,44.36,44.36,0,0,1,14.27-10.15A43.87,43.87,0,0,1,834,320a44.43,44.43,0,0,1,32.77,13.93,46.91,46.91,0,0,1,9.28,14.79,47.89,47.89,0,0,1,3.36,17.89,48.58,48.58,0,0,1-3.27,17.72,44.7,44.7,0,0,1-23.65,24.94A44.3,44.3,0,0,1,834,413Zm-29.76-46.27a35.92,35.92,0,0,0,2.33,13.07,33.09,33.09,0,0,0,6.36,10.5,30,30,0,0,0,9.46,7.05,27.41,27.41,0,0,0,23.22,0,30.55,30.55,0,0,0,9.55-7.14,33.46,33.46,0,0,0,6.45-10.66A36.9,36.9,0,0,0,864,366.41a36.4,36.4,0,0,0-2.32-13,33.46,33.46,0,0,0-6.45-10.66,30.55,30.55,0,0,0-9.55-7.14A26.65,26.65,0,0,0,834,333a25.9,25.9,0,0,0-11.61,2.67,30.56,30.56,0,0,0-9.46,7.22,34.09,34.09,0,0,0-6.36,10.66A36.72,36.72,0,0,0,804.26,366.75Z" transform="translate(-278.71 -268.33)"/><rect class="cls-1" x="589.39" width="11.32" height="99.19"/><polygon class="cls-3" points="243.71 51.21 235.99 75.12 245.15 83.93 240.57 98.33 245.15 107.05 243.38 96.69 249.23 82.7 240.7 72.97 250.42 53.22 243.71 51.21"/><path class="cls-4" d="M555.67,443.76v2.44h-6.53v19.05H546.4V446.2h-6.56v-2.44Z" transform="translate(-278.71 -268.33)"/><path class="cls-4" d="M574.93,465.25h-2.75v-9.78H561.29v9.78h-2.75V443.76h2.75v9.58h10.89v-9.58h2.75Z" transform="translate(-278.71 -268.33)"/><path class="cls-4" d="M592.32,443.76v2.37h-9.7v7.14h7.85v2.28h-7.85v7.33h9.7v2.37H579.87V443.76Z" transform="translate(-278.71 -268.33)"/><path class="cls-4" d="M601.7,465.25V443.76h6.44a11.65,11.65,0,0,1,3.21.39,6.09,6.09,0,0,1,2.22,1.11,4.48,4.48,0,0,1,1.28,1.76,6.27,6.27,0,0,1,.42,2.35,4.9,4.9,0,0,1-.24,1.53,4.51,4.51,0,0,1-.7,1.36,5.15,5.15,0,0,1-1.19,1.13,6.33,6.33,0,0,1-1.67.81,6.06,6.06,0,0,1,3.34,1.69,4.57,4.57,0,0,1,1.13,3.24,6.46,6.46,0,0,1-.47,2.49,5.47,5.47,0,0,1-1.38,1.94,6.28,6.28,0,0,1-2.23,1.25,9.58,9.58,0,0,1-3,.44Zm2.73-11.86H608a6.65,6.65,0,0,0,2-.27,4,4,0,0,0,1.4-.75,3,3,0,0,0,.83-1.16,4.3,4.3,0,0,0,.26-1.5,3.37,3.37,0,0,0-1.07-2.77,5.16,5.16,0,0,0-3.33-.89h-3.71Zm0,2.07v7.48h4.38a6.29,6.29,0,0,0,2-.28,3.61,3.61,0,0,0,1.38-.81,3,3,0,0,0,.79-1.23,4.56,4.56,0,0,0,.26-1.56,3.33,3.33,0,0,0-1.11-2.64,5,5,0,0,0-3.35-1Z" transform="translate(-278.71 -268.33)"/><path class="cls-4" d="M636.57,465.25h-2.11a.85.85,0,0,1-.59-.19,1.17,1.17,0,0,1-.34-.5l-1.89-5.19h-9.07l-1.89,5.19a1.21,1.21,0,0,1-.34.48.87.87,0,0,1-.59.21h-2.12l8.08-21.49h2.78Zm-13.24-8h7.55l-3.18-8.74a17.22,17.22,0,0,1-.6-2c-.11.41-.21.79-.31,1.13a8.22,8.22,0,0,1-.29.91Z" transform="translate(-278.71 -268.33)"/><path class="cls-4" d="M656.64,454.51a12.81,12.81,0,0,1-.72,4.4,9.76,9.76,0,0,1-2,3.39,9,9,0,0,1-3.14,2.18,10.31,10.31,0,0,1-4.06.77h-7.56V443.76h7.56a10.49,10.49,0,0,1,4.06.77,8.81,8.81,0,0,1,3.14,2.19,9.9,9.9,0,0,1,2,3.4A12.75,12.75,0,0,1,656.64,454.51Zm-2.8,0a11.37,11.37,0,0,0-.51-3.54,7.62,7.62,0,0,0-1.44-2.64,6.1,6.1,0,0,0-2.26-1.65,7.34,7.34,0,0,0-2.94-.57h-4.81V462.9h4.81a7.34,7.34,0,0,0,2.94-.57,6.19,6.19,0,0,0,2.26-1.64,7.62,7.62,0,0,0,1.44-2.64A11.37,11.37,0,0,0,653.84,454.51Z" transform="translate(-278.71 -268.33)"/><path class="cls-4" d="M682.2,465.25h-2.75v-9.78H668.56v9.78h-2.75V443.76h2.75v9.58h10.89v-9.58h2.75Z" transform="translate(-278.71 -268.33)"/><path class="cls-4" d="M703.76,465.25h-2.12a.87.87,0,0,1-.59-.19,1.27,1.27,0,0,1-.34-.5l-1.89-5.19h-9.07l-1.89,5.19a1.1,1.1,0,0,1-.33.48.88.88,0,0,1-.6.21h-2.11l8.08-21.49h2.78Zm-13.24-8h7.54l-3.17-8.74a17,17,0,0,1-.61-2c-.1.41-.2.79-.3,1.13s-.2.65-.29.91Z" transform="translate(-278.71 -268.33)"/><path class="cls-4" d="M706.31,465.25V443.76h6.45a11.52,11.52,0,0,1,3.2.39,6.09,6.09,0,0,1,2.22,1.11,4.38,4.38,0,0,1,1.28,1.76,6.27,6.27,0,0,1,.42,2.35,5.2,5.2,0,0,1-.23,1.53,4.54,4.54,0,0,1-.71,1.36,5.3,5.3,0,0,1-1.18,1.13,6.55,6.55,0,0,1-1.68.81,6.13,6.13,0,0,1,3.35,1.69,4.62,4.62,0,0,1,1.13,3.24,6.28,6.28,0,0,1-.48,2.49,5.23,5.23,0,0,1-1.38,1.94,6.28,6.28,0,0,1-2.23,1.25,9.58,9.58,0,0,1-3,.44Zm2.74-11.86h3.61a6.58,6.58,0,0,0,2-.27,4,4,0,0,0,1.4-.75,3,3,0,0,0,.83-1.16,4.08,4.08,0,0,0,.27-1.5,3.37,3.37,0,0,0-1.08-2.77,5.15,5.15,0,0,0-3.32-.89h-3.71Zm0,2.07v7.48h4.37a6.29,6.29,0,0,0,2-.28,3.61,3.61,0,0,0,1.38-.81,3.09,3.09,0,0,0,.8-1.23,4.56,4.56,0,0,0,.25-1.56,3.33,3.33,0,0,0-1.11-2.64,5,5,0,0,0-3.35-1Z" transform="translate(-278.71 -268.33)"/><path class="cls-4" d="M727.8,465.25h-2.73V443.76h2.73Z" transform="translate(-278.71 -268.33)"/><path class="cls-4" d="M747,443.76v2.44h-6.53v19.05h-2.73V446.2h-6.56v-2.44Z" transform="translate(-278.71 -268.33)"/><path class="cls-4" d="M769.07,443.76v2.44h-6.53v19.05H759.8V446.2h-6.56v-2.44Z" transform="translate(-278.71 -268.33)"/><path class="cls-4" d="M775,456.28v9h-2.72V443.76h5.71a11.92,11.92,0,0,1,3.31.41,6.31,6.31,0,0,1,2.31,1.19,4.78,4.78,0,0,1,1.34,1.89,7,7,0,0,1,.1,4.59,5.63,5.63,0,0,1-1,1.78,5.79,5.79,0,0,1-1.56,1.34,7.56,7.56,0,0,1-2.1.84,3.07,3.07,0,0,1,.91.92l5.89,8.53h-2.42a1.17,1.17,0,0,1-1.1-.61L778.39,457a1.51,1.51,0,0,0-.52-.52,1.73,1.73,0,0,0-.85-.16Zm0-2.11h2.86a6.74,6.74,0,0,0,2.11-.31,4.18,4.18,0,0,0,1.52-.87,3.68,3.68,0,0,0,.93-1.34,4.8,4.8,0,0,0,.31-1.73,3.5,3.5,0,0,0-1.2-2.89,5.47,5.47,0,0,0-3.54-1h-3Z" transform="translate(-278.71 -268.33)"/><path class="cls-4" d="M806.74,465.25h-2.12a.87.87,0,0,1-.59-.19,1.17,1.17,0,0,1-.34-.5l-1.89-5.19h-9.07l-1.89,5.19a1.12,1.12,0,0,1-.34.48.85.85,0,0,1-.59.21H787.8l8.08-21.49h2.77Zm-13.25-8H801l-3.18-8.74a19.37,19.37,0,0,1-.6-2l-.3,1.13c-.1.35-.2.65-.29.91Z" transform="translate(-278.71 -268.33)"/><path class="cls-4" d="M822.94,460.81a.56.56,0,0,1,.41.2l1.07,1.24a8.74,8.74,0,0,1-3,2.39,9.74,9.74,0,0,1-4.27.85,9.44,9.44,0,0,1-4-.8,8.55,8.55,0,0,1-3-2.25A10.2,10.2,0,0,1,808.2,459a13.77,13.77,0,0,1-.69-4.46,12.94,12.94,0,0,1,.74-4.45,10.44,10.44,0,0,1,2.08-3.48,9.17,9.17,0,0,1,3.21-2.26,10.45,10.45,0,0,1,4.13-.8,9.23,9.23,0,0,1,3.84.73,9.82,9.82,0,0,1,2.87,2l-.89,1.33a.93.93,0,0,1-.23.25.53.53,0,0,1-.36.1.72.72,0,0,1-.39-.14l-.49-.36q-.28-.21-.66-.45a5.38,5.38,0,0,0-.9-.45,6.61,6.61,0,0,0-1.22-.35,7.58,7.58,0,0,0-1.59-.14,7.23,7.23,0,0,0-3,.59,6.59,6.59,0,0,0-2.32,1.69,7.72,7.72,0,0,0-1.51,2.67,10.53,10.53,0,0,0-.55,3.52,10.79,10.79,0,0,0,.55,3.59,7.85,7.85,0,0,0,1.48,2.66,6.23,6.23,0,0,0,2.22,1.66,6.72,6.72,0,0,0,2.76.57,11.25,11.25,0,0,0,1.62-.11,6.74,6.74,0,0,0,1.34-.36,5.62,5.62,0,0,0,1.14-.6,9.14,9.14,0,0,0,1.06-.88A.72.72,0,0,1,822.94,460.81Z" transform="translate(-278.71 -268.33)"/><path class="cls-4" d="M831,453.18h1a2.18,2.18,0,0,0,.85-.14,1.78,1.78,0,0,0,.6-.49l6.73-8.1a2.15,2.15,0,0,1,.6-.53,1.48,1.48,0,0,1,.74-.16h2.33L836.2,453c-.2.23-.39.43-.56.59a2.57,2.57,0,0,1-.56.39,1.9,1.9,0,0,1,.69.4,5.29,5.29,0,0,1,.62.68l8,10.18h-2.37a1.92,1.92,0,0,1-.45,0,1.33,1.33,0,0,1-.32-.12.91.91,0,0,1-.24-.2l-.23-.25-7-8.54c-.1-.12-.2-.22-.29-.31a1.41,1.41,0,0,0-.31-.21,1.52,1.52,0,0,0-.41-.13,4.22,4.22,0,0,0-.57,0H831v9.84H828.3V443.76H831Z" transform="translate(-278.71 -268.33)"/><path class="cls-4" d="M859.68,443.76v2.37H850v7.14h7.86v2.28H850v7.33h9.71v2.37H847.22V443.76Z" transform="translate(-278.71 -268.33)"/><path class="cls-4" d="M866.62,456.28v9h-2.73V443.76h5.72a12,12,0,0,1,3.31.41,6.31,6.31,0,0,1,2.31,1.19,4.78,4.78,0,0,1,1.34,1.89,6.61,6.61,0,0,1,.44,2.46,6.43,6.43,0,0,1-.34,2.13,5.7,5.7,0,0,1-2.55,3.12,7.38,7.38,0,0,1-2.09.84,2.93,2.93,0,0,1,.9.92l5.9,8.53H876.4a1.18,1.18,0,0,1-1.1-.61L870.06,457a1.53,1.53,0,0,0-.53-.52,1.69,1.69,0,0,0-.84-.16Zm0-2.11h2.86a6.74,6.74,0,0,0,2.11-.31,4.27,4.27,0,0,0,1.52-.87,3.54,3.54,0,0,0,.92-1.34,4.59,4.59,0,0,0,.31-1.73,3.49,3.49,0,0,0-1.19-2.89,5.47,5.47,0,0,0-3.54-1h-3Z" transform="translate(-278.71 -268.33)"/></svg>